<?xml version="1.0" encoding="utf-8"?>
<!-- Generator: Adobe Illustrator 16.0.0, SVG Export Plug-In . SVG Version: 6.00 Build 0)  -->
<!DOCTYPE svg PUBLIC "-//W3C//DTD SVG 1.1//EN" "http://www.w3.org/Graphics/SVG/1.1/DTD/svg11.dtd">
<svg version="1.1" id="Warstwa_1" xmlns="http://www.w3.org/2000/svg" xmlns:xlink="http://www.w3.org/1999/xlink" x="0px" y="0px"
	 width="148.534px" height="37.692px" viewBox="0 0 148.534 37.692" enable-background="new 0 0 148.534 37.692"
	 xml:space="preserve">
<path fill="#F6F6F6" d="M24.57,7.848c-0.3,0.36-0.786,0.54-1.458,0.54c-0.049,0.504-0.156,1.38-0.324,2.628
	c-0.24,1.68-0.372,2.616-0.396,2.808c-2.137,15.912-6.589,23.868-13.356,23.868c-1.992,0-3.546-0.564-4.662-1.692
	C3.258,34.872,2.7,33.456,2.7,31.752c0-3.048,1.296-5.742,3.888-8.082s6-4.278,10.224-5.814c0.264-1.704,0.468-3.228,0.612-4.572
	l0.647-5.436c-1.44-0.144-2.784-0.216-4.032-0.216c-3.336,0-5.796,0.324-7.38,0.972s-2.376,1.704-2.376,3.168
	c0,0.72,0.24,1.5,0.72,2.34c0.144,0.24,0.216,0.492,0.216,0.756c0,0.504-0.258,0.954-0.774,1.35
	c-0.516,0.396-1.074,0.594-1.674,0.594c-0.769,0-1.356-0.324-1.764-0.972C0.335,14.736,0,13.452,0,11.988
	c0-5.76,5.04-8.64,15.12-8.64c2.928,0,5.545,0.288,7.848,0.864c1.369,0.336,2.053,1.008,2.053,2.016
	C25.02,6.948,24.87,7.488,24.57,7.848z M13.032,31.176c1.176-1.776,2.208-4.884,3.096-9.324c-5.855,2.568-8.784,5.712-8.784,9.432
	c0,0.816,0.192,1.446,0.576,1.89c0.384,0.444,0.912,0.666,1.584,0.666C10.68,33.84,11.856,32.952,13.032,31.176z"/>
<path fill="#F6F6F6" d="M66.815,20.484c2.713,0,4.068-0.828,4.068-2.484c0-0.456-0.084-0.768-0.252-0.936s-0.444-0.252-0.828-0.252
	h-4.031c3.119-2.76,4.68-6,4.68-9.72c0-1.344-0.288-2.46-0.864-3.348c-0.576-0.887-1.368-1.332-2.376-1.332
	c-1.368,0-2.646,0.648-3.834,1.944s-2.202,3.036-3.042,5.22c-0.841,2.185-1.464,4.596-1.872,7.236h-2.053
	c-1.079,0-1.619,0.672-1.619,2.016c0,0.576,0.126,0.997,0.378,1.26c0.252,0.264,0.737,0.396,1.458,0.396h1.404
	c-0.072,1.08-0.108,2.148-0.108,3.204c0,0.768,0.033,1.5,0.099,2.195c-0.215,0.077-0.417,0.216-0.602,0.433
	c-1.584,1.968-2.965,3.18-4.141,3.636c0.048-0.432,0.072-0.768,0.072-1.008c0-0.84-0.198-1.614-0.594-2.322
	c-0.396-0.708-0.979-1.566-1.746-2.574c-0.529-0.648-0.918-1.188-1.17-1.62s-0.379-0.828-0.379-1.188c0-0.6,0.217-1.332,0.648-2.196
	c0.168-0.312,0.3-0.624,0.396-0.936c0.096-0.312,0.144-0.54,0.144-0.684c0-0.264-0.132-0.456-0.396-0.576
	c-0.266-0.12-0.732-0.18-1.404-0.18c-1.44,0-2.389,0.528-2.844,1.584c-0.529,1.248-1.068,2.454-1.621,3.618
	c-0.552,1.165-1.031,2.094-1.439,2.79c-0.633,0.996-1.565,2.257-2.775,3.764c-0.28,0.29-0.544,0.552-0.771,0.754
	c-0.66,0.588-1.229,0.882-1.71,0.882c-0.313,0-0.564-0.126-0.756-0.378c-0.192-0.252-0.288-0.605-0.288-1.062
	c0-0.72,0.336-2.615,1.008-5.688c0.6-2.688,0.9-4.332,0.9-4.932c0-0.36-0.108-0.606-0.324-0.738
	c-0.216-0.131-0.601-0.198-1.151-0.198c-0.793,0-1.387,0.156-1.783,0.468c-0.396,0.313-0.689,0.828-0.881,1.548
	c-0.576,2.136-1.17,3.936-1.783,5.4c-0.611,1.464-1.188,2.556-1.728,3.276s-0.989,1.08-1.35,1.08c-0.265,0-0.456-0.102-0.576-0.306
	c-0.12-0.204-0.181-0.558-0.181-1.062c0-0.84,0.24-2.52,0.721-5.04c0.145-0.72,0.336-1.524,0.576-2.412
	c0.264-1.104,0.396-1.751,0.396-1.944c0-0.336-0.104-0.588-0.307-0.756c-0.204-0.167-0.57-0.252-1.098-0.252
	c-0.937,0-1.621,0.156-2.053,0.468c-0.432,0.313-0.768,0.828-1.008,1.548c-0.553,1.68-0.948,3.27-1.188,4.77
	c-0.24,1.5-0.36,3.15-0.36,4.95c0,1.488,0.342,2.73,1.026,3.726c0.684,0.996,1.565,1.494,2.646,1.494
	c0.937,0,1.812-0.438,2.628-1.314s1.428-2.13,1.836-3.762c0,1.608,0.27,2.856,0.811,3.744c0.539,0.888,1.386,1.332,2.537,1.332
	c1.513,0,2.863-0.408,4.051-1.224s2.297-1.86,3.33-3.132c0.123-0.142,0.226-0.302,0.315-0.476c0.127-0.155,0.263-0.303,0.386-0.46
	c0.732-0.936,1.471-2.112,2.215-3.528c0.336,0.384,0.695,0.834,1.08,1.35c0.383,0.517,0.701,1.05,0.953,1.602
	c0.252,0.552,0.391,1.14,0.414,1.764c-0.216-0.024-0.534-0.066-0.953-0.126c-0.421-0.06-0.787-0.09-1.099-0.09
	c-0.888,0-1.561,0.229-2.017,0.684c-0.455,0.456-0.684,0.996-0.684,1.62c0,0.72,0.33,1.368,0.99,1.944
	c0.66,0.576,1.613,0.864,2.861,0.864c1.32,0,2.461-0.409,3.421-1.224c1.607-0.048,2.958-0.342,4.05-0.882
	c1.092-0.54,2.238-1.554,3.438-3.042c0.03-0.038,0.05-0.082,0.078-0.121c0.204,0.577,0.438,1.118,0.714,1.615
	c1.056,1.908,2.724,2.862,5.004,2.862c1.584,0,3-0.516,4.248-1.548c0.36-0.288,0.63-0.648,0.81-1.08
	c0.181-0.432,0.271-0.875,0.271-1.332s-0.09-0.846-0.271-1.17c-0.18-0.324-0.414-0.486-0.701-0.486c-0.265,0-0.528,0.121-0.793,0.36
	c-0.432,0.384-0.912,0.697-1.439,0.936c-0.527,0.24-0.984,0.36-1.367,0.36c-0.745,0-1.327-0.21-1.746-0.63
	c-0.421-0.419-0.721-1.116-0.9-2.088s-0.27-2.322-0.27-4.05c0-0.672,0.023-1.608,0.071-2.808H66.815z M63.774,10.962
	c0.396-1.596,0.814-2.844,1.26-3.744c0.443-0.9,0.846-1.35,1.205-1.35c0.528,0,0.793,0.708,0.793,2.124
	c0,1.249-0.355,2.634-1.063,4.158c-0.708,1.524-1.77,2.898-3.186,4.122C63.047,14.328,63.377,12.558,63.774,10.962z"/>
<path fill="#F6F6F6" d="M112.571,20.88c-0.504-1.152-1.26-2.082-2.268-2.79c-1.008-0.708-2.221-1.062-3.637-1.062
	c-1.463,0-2.783,0.402-3.959,1.206c-1.177,0.804-2.106,1.92-2.791,3.348c-0.684,1.428-1.025,3.054-1.025,4.878
	c0,0.482,0.045,0.95,0.113,1.41c-0.514,0.556-0.964,1.006-1.337,1.326c-0.672,0.576-1.332,0.864-1.979,0.864
	c-0.504,0-0.918-0.3-1.241-0.9c-0.324-0.6-0.535-1.596-0.631-2.988c2.208-3.792,3.973-7.488,5.292-11.088s1.979-6.744,1.979-9.432
	c0-1.896-0.342-3.312-1.025-4.248S98.518,0,97.487,0c-2.088,0-3.773,1.65-5.058,4.95c-1.284,3.3-2.154,7.278-2.61,11.934
	c-1.776,0.192-3.378,0.81-4.806,1.854c-1.429,1.044-2.55,2.388-3.366,4.032s-1.225,3.426-1.225,5.346
	c0,1.752,0.475,3.174,1.423,4.266c0.948,1.092,2.153,1.638,3.618,1.638c1.008,0,1.89-0.216,2.646-0.648
	c0.757-0.432,1.638-1.284,2.646-2.556c0.961,2.136,2.353,3.204,4.177,3.204c1.151,0,2.315-0.426,3.491-1.278
	c0.631-0.457,1.231-0.968,1.807-1.525c0.448,0.678,0.997,1.265,1.668,1.741c0.996,0.708,2.201,1.062,3.618,1.062
	c1.44,0,2.754-0.402,3.942-1.206c1.188-0.804,2.129-1.92,2.826-3.348c0.695-1.428,1.043-3.054,1.043-4.878
	C113.327,23.268,113.075,22.032,112.571,20.88z M94.553,12.312c0.324-2.616,0.714-4.734,1.17-6.354
	c0.455-1.62,0.912-2.43,1.368-2.43c0.216,0,0.401,0.252,0.558,0.756c0.156,0.504,0.234,1.212,0.234,2.124
	c0,3.552-1.345,8.256-4.032,14.112C93.995,17.664,94.229,14.928,94.553,12.312z M88.091,29.826
	c-0.456,0.373-0.913,0.558-1.368,0.558c-1.2,0-1.801-0.876-1.801-2.628c0-1.656,0.438-3.162,1.314-4.518
	c0.876-1.355,1.975-2.238,3.295-2.646c-0.049,1.296-0.072,2.232-0.072,2.808c0,1.608,0.119,3.06,0.359,4.356
	C89.123,28.764,88.547,29.454,88.091,29.826z M107.981,28.8c-0.564,0.888-1.254,1.332-2.07,1.332c-0.72,0-1.32-0.324-1.799-0.972
	c-0.48-0.648-0.721-1.656-0.721-3.024c0-1.728,0.281-3.029,0.846-3.906c0.564-0.876,1.278-1.314,2.143-1.314
	c0.672,0,1.248,0.336,1.728,1.008c0.479,0.672,0.72,1.668,0.72,2.988C108.827,26.616,108.545,27.912,107.981,28.8z"/>
<g>
	<path fill="#F6F6F6" d="M129.995,14.688c1.031,0,1.859-0.282,2.484-0.846c0.623-0.563,0.936-1.326,0.936-2.286
		c0-0.792-0.275-1.404-0.828-1.836c-0.553-0.432-1.271-0.648-2.16-0.648c-0.984,0-1.806,0.282-2.465,0.846
		c-0.661,0.564-0.99,1.266-0.99,2.106c0,0.84,0.252,1.494,0.756,1.962S128.987,14.688,129.995,14.688z"/>
	<path fill="#F6F6F6" d="M144.466,20.484c2.712,0,4.067-0.828,4.067-2.484c0-0.456-0.084-0.768-0.252-0.936
		s-0.443-0.252-0.828-0.252h-4.031c3.119-2.76,4.68-6,4.68-9.72c0-1.344-0.287-2.46-0.863-3.348
		c-0.576-0.887-1.369-1.332-2.377-1.332c-1.367,0-2.646,0.648-3.834,1.944c-1.188,1.296-2.201,3.036-3.041,5.22
		c-0.841,2.185-1.465,4.596-1.873,7.236h-2.052c-1.079,0-1.62,0.672-1.62,2.016c0,0.576,0.127,0.997,0.379,1.26
		c0.252,0.264,0.737,0.396,1.457,0.396h1.404c-0.072,1.08-0.107,2.148-0.107,3.204c0,0.768,0.033,1.5,0.099,2.195
		c-0.215,0.077-0.417,0.216-0.603,0.433c-1.08,1.296-1.943,2.244-2.592,2.844c-0.648,0.601-1.188,0.9-1.62,0.9
		c-0.456,0-0.78-0.192-0.972-0.576c-0.193-0.384-0.289-0.936-0.289-1.656c0-0.936,0.289-2.724,0.865-5.364
		c0.455-2.184,0.684-3.576,0.684-4.176c0-0.816-0.612-1.224-1.836-1.224c-0.793,0-1.368,0.144-1.729,0.432
		c-0.359,0.288-0.648,0.816-0.863,1.584c-0.433,1.464-0.787,3.042-1.063,4.734c-0.276,1.692-0.414,3.078-0.414,4.158
		c0,1.824,0.354,3.289,1.063,4.392c0.707,1.104,1.842,1.656,3.401,1.656c2.063,0,4.284-1.452,6.66-4.356
		c0.03-0.035,0.051-0.079,0.079-0.116c0.203,0.575,0.438,1.114,0.713,1.609c1.055,1.908,2.723,2.862,5.004,2.862
		c1.584,0,3-0.516,4.248-1.548c0.359-0.288,0.629-0.648,0.81-1.08c0.181-0.432,0.271-0.875,0.271-1.332s-0.09-0.846-0.271-1.17
		c-0.181-0.324-0.414-0.486-0.702-0.486c-0.264,0-0.527,0.121-0.792,0.36c-0.432,0.384-0.912,0.697-1.44,0.936
		c-0.527,0.24-0.984,0.36-1.367,0.36c-0.744,0-1.326-0.21-1.746-0.63c-0.42-0.419-0.721-1.116-0.9-2.088s-0.27-2.322-0.27-4.05
		c0-0.672,0.023-1.608,0.072-2.808H144.466z M141.424,10.962c0.396-1.596,0.815-2.844,1.26-3.744c0.443-0.9,0.846-1.35,1.206-1.35
		c0.528,0,0.792,0.708,0.792,2.124c0,1.249-0.354,2.634-1.063,4.158c-0.707,1.524-1.77,2.898-3.186,4.122
		C140.698,14.328,141.028,12.558,141.424,10.962z"/>
</g>
</svg>
